<svg width="223" height="180" viewBox="0 0 223 180" fill="none" xmlns="http://www.w3.org/2000/svg">
<path d="M210.359 0.106151C212.543 0.678279 214.68 1.37592 216.757 2.19447C221.186 4.20248 222.868 7.50365 222.434 11.8329C222.018 15.9293 219.337 18.3469 215.269 19.865C212.384 20.9573 209.333 21.0216 206.236 21.0216C159.738 21.0216 113.244 21.0216 66.7519 21.0216C51.9594 21.0216 44.9515 26.3709 42.7141 39.1258C40.4213 52.2502 50.7483 61.1497 60.9921 62.7159C62.7962 62.9914 64.6243 63.1311 66.4561 63.1336C80.5552 63.1818 94.6266 63.5111 108.67 64.74C122.131 65.9127 131.913 71.9688 138.357 82.0089C150.736 101.286 146.484 124.699 128.187 139.976C120.689 146.233 111.388 148.811 101.376 148.892C72.3731 149.092 43.3705 148.948 14.368 148.972C11.5981 149.047 8.85498 148.482 6.41862 147.334C3.98225 146.187 1.93989 144.499 0.5 142.442V136.016C4.03171 131.028 9.46796 129.591 15.8195 129.591C42.1871 129.591 68.5178 129.591 94.9132 129.486C115.197 129.366 128.289 110.458 119.127 94.9485C113.949 86.1855 104.981 83.6474 94.7005 83.4064C84.4197 83.1655 73.8523 83.535 63.4421 83.3181C47.383 82.9727 35.0405 76.5471 26.239 65.0532C18.1955 54.5634 18.2233 42.8045 20.9137 31.158C24.7042 14.7325 42.5382 -1.46813 63.7285 0.106149C68.1452 0.434272 70.0049 0.106151 75.082 0.106151H210.359Z" fill="#1FCEC9"/>
<path d="M113.054 35.0927C124.168 35.0927 135.2 34.8505 146.259 35.1492C165.227 35.6578 181.63 41.608 195.95 52.6768C211.241 64.4803 219.661 79.1337 221.8 96.5887C225.653 128.019 213.9 155.921 179.028 172.536C169.432 177.106 158.707 178.349 147.944 179.181C131.532 180.456 115.092 179.706 98.6699 179.988C90.334 180.133 82.1649 178.898 73.8383 179.019C70.9604 179.013 68.1921 178.057 66.0905 176.343C63.9888 174.63 62.7098 172.286 62.5107 169.783C62.2329 164.632 67.3826 159.925 74.4125 159.013C75.9505 158.872 77.4983 158.829 79.0435 158.884C97.6418 158.884 116.24 159.078 134.838 158.803C144.36 158.795 153.836 157.654 163.004 155.412C182.455 150.366 193.717 139.072 197.552 121.818C201.701 103.12 199.404 85.5602 185.511 70.1479C176.647 60.3789 164.523 55.5833 150.417 54.6064C126.336 52.9109 102.199 54.1058 78.0896 53.7506C76.5572 53.799 75.0233 53.7042 73.5141 53.468C67.9568 52.3377 63.9093 47.9134 64.3724 43.7233C64.8818 39.081 70.3465 35.2299 77.0893 35.1573C89.0744 35.0362 101.069 35.1573 113.054 35.1573V35.0927Z" fill="#1FCEC9"/>
</svg>
